# xmcd
#
# Track frame offsets: 
#        150
#        16279
#        29623
#        54409
#        69240
#        89565
#        105828
#        120691
#        152653
#        176178
#        190158
#        208313
#        228503
#        252213
#        274090
#        297624
#
# Disc length: 4250 seconds
#
# Revision: 0
# Processed by: cddbd v1.5.2PL0 Copyright (c) Steve Scherf et al.
# Submitted via: ExactAudioCopy v1.0b3
#
DISCID=e7109810
DTITLE=The Tiger Lillies - Either Or
DYEAR=2012
DGENRE=Cabaret
TTITLE0=Blood alley
TTITLE1=Boredom
TTITLE2=Nothing is Sin
TTITLE3=Innocence
TTITLE4=Sailor
TTITLE5=Either Or
TTITLE6=Gutter
TTITLE7=No Sense
TTITLE8=He's so Bad
TTITLE9=God up in Heaven
TTITLE10=Depression
TTITLE11=Love For Sale
TTITLE12=Tears in the Rain
TTITLE13=Forget About Us
TTITLE14=Teardrops
TTITLE15=Destroy
EXTD=
EXTT0=
EXTT1=
EXTT2=
EXTT3=
EXTT4=
EXTT5=
EXTT6=
EXTT7=
EXTT8=
EXTT9=
EXTT10=
EXTT11=
EXTT12=
EXTT13=
EXTT14=
EXTT15=
PLAYORDER=
